<svg height="256" viewBox="0 0 256 256" width="256" xmlns="http://www.w3.org/2000/svg" xmlns:xlink="http://www.w3.org/1999/xlink"><radialGradient id="a" cx="106.07119" cy="116.63881" gradientTransform="matrix(1 0 0 1.2859508 0 -37.499566)" gradientUnits="userSpaceOnUse" r="76.129748"><stop offset="0" stop-color="#35b9e0"/><stop offset="1" stop-color="#163fbb"/></radialGradient><filter id="b" color-interpolation-filters="sRGB" height="1.030639" width="1.043634" x="-.021817" y="-.01532"><feGaussianBlur stdDeviation="1.5622236"/></filter><g><g id="c" fill="url(#a)" transform="matrix(1.212135 0 0 1.212135 7.15199 -26.916402)"><g fill="url(#a)" transform="translate(3.34703 .478147)"><path d="m98.922912 44.395363-78.997131 175.385887 18.509574-19.40672 23.504642-47.60254 66.278753-53.543474-23.808 8.593414-36.828719 29.46127 50.320309-110.630856z" fill="url(#a)" fill-rule="evenodd"/><path d="m162.45724 86.944318 10.73699-19.104745-105.092465 84.801787-7.631842 16.17506 44.549187-35.2147s2.29265 17.55839 5.23853 25.83772c6.30215 17.71206 14.08695 35.57577 26.22654 49.93073 6.82101 8.06579 25.21833 19.19073 25.21833 19.19073s-17.19735-19.00203-23.95553-29.81101c-7.71136-12.3335-14.15196-25.62411-18.61135-39.46948-3.33744-10.36199-5.92931-32.11586-5.92931-32.11586z" fill="url(#a)" fill-rule="evenodd"/></g></g></g><use filter="url(#b)" height="100%" width="100%" xlink:href="#c"/></svg>